<mxfile host="65bd71144e">
    <diagram id="NZDmTrSZMK6VLAr1k8lg" name="Page-1">
        <mxGraphModel dx="820" dy="478" grid="1" gridSize="10" guides="1" tooltips="1" connect="1" arrows="1" fold="1" page="1" pageScale="1" pageWidth="850" pageHeight="1100" math="0" shadow="0">
            <root>
                <mxCell id="0"/>
                <mxCell id="1" parent="0"/>
                <mxCell id="2" value="" style="strokeWidth=1;shadow=0;dashed=0;align=center;html=1;shape=mxgraph.mockup.containers.browserWindow;rSize=0;strokeColor=#666666;strokeColor2=#008cff;strokeColor3=#c4c4c4;mainText=,;recursiveResize=0;" vertex="1" parent="1">
                    <mxGeometry x="100" y="40" width="810" height="480" as="geometry"/>
                </mxCell>
                <mxCell id="3" value="Wikipedia" style="strokeWidth=1;shadow=0;dashed=0;align=center;html=1;shape=mxgraph.mockup.containers.anchor;fontSize=17;fontColor=#666666;align=left;" vertex="1" parent="2">
                    <mxGeometry x="60" y="12" width="110" height="26" as="geometry"/>
                </mxCell>
                <mxCell id="4" value="https://www.wikipedia.org/" style="strokeWidth=1;shadow=0;dashed=0;align=center;html=1;shape=mxgraph.mockup.containers.anchor;rSize=0;fontSize=17;fontColor=#666666;align=left;" vertex="1" parent="2">
                    <mxGeometry x="130" y="60" width="250" height="26" as="geometry"/>
                </mxCell>
                <mxCell id="5" value="" style="outlineConnect=0;fontColor=#232F3E;gradientColor=none;fillColor=#FF9900;strokeColor=none;dashed=0;verticalLabelPosition=bottom;verticalAlign=top;align=center;html=1;fontSize=12;fontStyle=0;aspect=fixed;pointerEvents=1;shape=mxgraph.aws4.container_registry_image;" vertex="1" parent="2">
                    <mxGeometry x="300" y="200" width="118" height="118" as="geometry"/>
                </mxCell>
                <mxCell id="6" value="Link button" style="fillColor=none;strokeColor=none;html=1;fontColor=#0057D8;align=center;verticalAlign=middle;fontStyle=0;fontSize=12" vertex="1" parent="2">
                    <mxGeometry x="430" y="210" width="86" height="33" as="geometry"/>
                </mxCell>
                <mxCell id="7" value="Link button" style="fillColor=none;strokeColor=none;html=1;fontColor=#0057D8;align=center;verticalAlign=middle;fontStyle=0;fontSize=12" vertex="1" parent="2">
                    <mxGeometry x="440" y="256.5" width="86" height="33" as="geometry"/>
                </mxCell>
                <mxCell id="8" value="Link button" style="fillColor=none;strokeColor=none;html=1;fontColor=#0057D8;align=center;verticalAlign=middle;fontStyle=0;fontSize=12" vertex="1" parent="2">
                    <mxGeometry x="440" y="300" width="86" height="33" as="geometry"/>
                </mxCell>
                <mxCell id="9" value="Link button" style="fillColor=none;strokeColor=none;html=1;fontColor=#0057D8;align=center;verticalAlign=middle;fontStyle=0;fontSize=12" vertex="1" parent="2">
                    <mxGeometry x="390" y="340" width="86" height="33" as="geometry"/>
                </mxCell>
                <mxCell id="10" value="Link button" style="fillColor=none;strokeColor=none;html=1;fontColor=#0057D8;align=center;verticalAlign=middle;fontStyle=0;fontSize=12" vertex="1" parent="2">
                    <mxGeometry x="246" y="340" width="86" height="33" as="geometry"/>
                </mxCell>
                <mxCell id="12" value="Link button" style="fillColor=none;strokeColor=none;html=1;fontColor=#0057D8;align=center;verticalAlign=middle;fontStyle=0;fontSize=12" vertex="1" parent="2">
                    <mxGeometry x="212" y="150" width="86" height="33" as="geometry"/>
                </mxCell>
                <mxCell id="15" value="Link button" style="fillColor=none;strokeColor=none;html=1;fontColor=#0057D8;align=center;verticalAlign=middle;fontStyle=0;fontSize=12" vertex="1" parent="2">
                    <mxGeometry x="190" y="256.5" width="86" height="33" as="geometry"/>
                </mxCell>
                <mxCell id="11" value="Link button" style="fillColor=none;strokeColor=none;html=1;fontColor=#0057D8;align=center;verticalAlign=middle;fontStyle=0;fontSize=12" vertex="1" parent="2">
                    <mxGeometry x="190" y="300" width="86" height="33" as="geometry"/>
                </mxCell>
                <mxCell id="17" value="Wikipedia" style="text;strokeColor=none;fillColor=none;html=1;fontSize=24;fontStyle=1;verticalAlign=middle;align=center;" vertex="1" parent="2">
                    <mxGeometry x="200" y="110" width="330" height="40" as="geometry"/>
                </mxCell>
                <mxCell id="18" value="&lt;font style=&quot;font-size: 10px&quot;&gt;The Free Encyclopedia&lt;/font&gt;" style="text;strokeColor=none;fillColor=none;html=1;fontSize=24;fontStyle=1;verticalAlign=middle;align=center;" vertex="1" parent="2">
                    <mxGeometry x="315" y="120" width="100" height="40" as="geometry"/>
                </mxCell>
                <mxCell id="19" value="" style="html=1;shadow=0;dashed=0;shape=mxgraph.bootstrap.rrect;rSize=5;strokeColor=#CED4DA;strokeWidth=1;fillColor=#E9ECEF;fontColor=#505050;whiteSpace=wrap;align=left;verticalAlign=middle;spacingLeft=10;fontSize=14;" vertex="1" parent="2">
                    <mxGeometry x="170" y="390" width="270" height="40" as="geometry"/>
                </mxCell>
                <mxCell id="24" value="Search" style="rounded=1;fillColor=#0057D8;align=center;strokeColor=none;html=1;fontColor=#ffffff;fontSize=12" vertex="1" parent="2">
                    <mxGeometry x="450.5" y="380" width="89.5" height="46.5" as="geometry"/>
                </mxCell>
                <mxCell id="14" value="Link button" style="fillColor=none;strokeColor=none;html=1;fontColor=#0057D8;align=center;verticalAlign=middle;fontStyle=0;fontSize=12" vertex="1" parent="1">
                    <mxGeometry x="530" y="190" width="86" height="33" as="geometry"/>
                </mxCell>
                <mxCell id="16" value="Link button" style="fillColor=none;strokeColor=none;html=1;fontColor=#0057D8;align=center;verticalAlign=middle;fontStyle=0;fontSize=12" vertex="1" parent="1">
                    <mxGeometry x="290" y="250" width="86" height="33" as="geometry"/>
                </mxCell>
            </root>
        </mxGraphModel>
    </diagram>
</mxfile>